<?xml version="1.0" encoding="us-ascii" standalone="no"?><svg xmlns="http://www.w3.org/2000/svg" xmlns:xlink="http://www.w3.org/1999/xlink" contentStyleType="text/css" height="628px" preserveAspectRatio="none" style="width:376px;height:628px;background:#FFFFFF;" version="1.1" viewBox="0 0 376 628" width="376px" zoomAndPan="magnify"><defs/><g><text fill="#000000" font-family="Arcon" font-size="28" font-weight="bold" lengthAdjust="spacing" textLength="320" x="20" y="45.9902">Component Diagram</text><!--entity c1--><g id="elem_c1"><rect fill="#85BBF0" height="77.25" rx="5" ry="5" style="stroke:#78A8D8;stroke-width:1.0;" width="244" x="71.5" y="88.5938"/><text fill="#000000" font-family="Arcon" font-size="32" font-weight="bold" lengthAdjust="spacing" textLength="204" x="91.5" y="138.2969">Component</text></g><!--entity db1--><g id="elem_db1"><path d="M90.5,364.5938 C90.5,344.5938 193.5,344.5938 193.5,344.5938 C193.5,344.5938 296.5,344.5938 296.5,364.5938 L296.5,419.8438 C296.5,439.8438 193.5,439.8438 193.5,439.8438 C193.5,439.8438 90.5,439.8438 90.5,419.8438 L90.5,364.5938 " fill="#85BBF0" style="stroke:#78A8D8;stroke-width:1.0;"/><path d="M90.5,364.5938 C90.5,384.5938 193.5,384.5938 193.5,384.5938 C193.5,384.5938 296.5,384.5938 296.5,364.5938 " fill="none" style="stroke:#78A8D8;stroke-width:1.0;"/><text fill="#000000" font-family="Arcon" font-size="32" font-weight="bold" lengthAdjust="spacing" textLength="166" x="110.5" y="422.2969">Database</text></g><!--link c1 to db1--><g id="link_c1_db1"><path d="M193.5,166.9937 C193.5,213.7938 193.5,277.9138 193.5,328.4738 " fill="none" id="c1-to-db1" style="stroke:#666666;stroke-width:2.0;"/><polygon fill="#666666" points="193.5,344.4738,199.5,328.4738,187.5,328.4738,193.5,344.4738" style="stroke:#666666;stroke-width:2.0;"/><text fill="#666666" font-family="Arcon" font-size="24" font-weight="bold" lengthAdjust="spacing" textLength="70" x="210.5" y="250.8711">Uses</text><text fill="#666666" font-family="Arcon" font-size="24" font-style="italic" lengthAdjust="spacing" textLength="100" x="195.5" y="278.8086">[MySQL]</text></g><rect fill="none" height="32.5938" style="stroke:none;stroke-width:2.0;" width="216" x="72" y="509.8438"/><text fill="#000000" font-family="Arcon" font-size="28" font-weight="bold" lengthAdjust="spacing" textLength="118" x="72" y="535.834">Legend</text><text fill="#FFFFFF" font-family="Arcon" font-size="28" lengthAdjust="spacing" textLength="8" x="190" y="535.834">&#160;</text><rect fill="#85BBF0" height="32.5938" style="stroke:none;stroke-width:2.0;" width="216" x="72" y="542.4375"/><text fill="#78A8D8" font-family="Arcon" font-size="28" lengthAdjust="spacing" textLength="16" x="80" y="568.4277">&#9647;</text><text fill="#FFFFFF" font-family="Arcon" font-size="28" lengthAdjust="spacing" textLength="8" x="96" y="568.4277">&#160;</text><text fill="#000000" font-family="Arcon" font-size="28" lengthAdjust="spacing" textLength="160" x="112" y="568.4277">component</text><text fill="#FFFFFF" font-family="Arcon" font-size="28" lengthAdjust="spacing" textLength="8" x="280" y="568.4277">&#160;</text><line style="stroke:none;stroke-width:2.0;" x1="72" x2="288" y1="509.8438" y2="509.8438"/><line style="stroke:none;stroke-width:2.0;" x1="72" x2="288" y1="542.4375" y2="542.4375"/><line style="stroke:none;stroke-width:2.0;" x1="72" x2="288" y1="575.0313" y2="575.0313"/><line style="stroke:none;stroke-width:2.0;" x1="72" x2="72" y1="509.8438" y2="575.0313"/><line style="stroke:none;stroke-width:2.0;" x1="288" x2="288" y1="509.8438" y2="575.0313"/><!--SRC=[KypCIyufJKbLA2wfp4ajrYiepStXuYh9BCb9LL1opiyjoCzBpIjHSCbCJ2zAp5NYubA4QKWsqNSsYOShWUg4ypMI3NMGJ53IH4Yv96ca985aNH9B4fCIYrE1aa6fEM0T48dGujHY9I3jMnaSw0EKvGhsy0-Fzt5rT_LpqT3a0W00]--></g></svg>