<?xml version="1.0" encoding="us-ascii" standalone="no"?><svg xmlns="http://www.w3.org/2000/svg" xmlns:xlink="http://www.w3.org/1999/xlink" contentStyleType="text/css" height="374px" preserveAspectRatio="none" style="width:298px;height:374px;background:#FFFFFF;" version="1.1" viewBox="0 0 298 374" width="298px" zoomAndPan="magnify"><defs/><g><text fill="#000000" font-family="Arcon" font-size="28" font-weight="bold" lengthAdjust="spacing" textLength="242" x="20" y="55.9902">Simple Diagram</text><line style="stroke:#004F91;stroke-width:1.0;stroke-dasharray:5.0,5.0;" x1="51.5" x2="51.5" y1="147.1875" y2="303.7188"/><line style="stroke:#004F91;stroke-width:1.0;stroke-dasharray:5.0,5.0;" x1="230.5" x2="230.5" y1="147.1875" y2="303.7188"/><rect fill="#FFFFFF" height="60.5938" rx="5" ry="5" style="stroke:#004F91;stroke-width:1.0;" width="46" x="29.5" y="84.5938"/><text fill="#000000" font-family="Arcon" font-size="28" lengthAdjust="spacing" textLength="18" x="43.5" y="124.584">A</text><rect fill="#FFFFFF" height="60.5938" rx="5" ry="5" style="stroke:#004F91;stroke-width:1.0;" width="46" x="29.5" y="301.7188"/><text fill="#000000" font-family="Arcon" font-size="28" lengthAdjust="spacing" textLength="18" x="43.5" y="341.709">A</text><rect fill="#FFFFFF" height="60.5938" rx="5" ry="5" style="stroke:#004F91;stroke-width:1.0;" width="48" x="206.5" y="84.5938"/><text fill="#000000" font-family="Arcon" font-size="28" lengthAdjust="spacing" textLength="20" x="220.5" y="124.584">B</text><rect fill="#FFFFFF" height="60.5938" rx="5" ry="5" style="stroke:#004F91;stroke-width:1.0;" width="48" x="206.5" y="301.7188"/><text fill="#000000" font-family="Arcon" font-size="28" lengthAdjust="spacing" textLength="20" x="220.5" y="341.709">B</text><polygon fill="#039BE5" points="206.5,201.4531,226.5,209.4531,206.5,217.4531,214.5,209.4531" style="stroke:#039BE5;stroke-width:2.0;"/><line style="stroke:#039BE5;stroke-width:2.0;" x1="52.5" x2="218.5" y1="209.4531" y2="209.4531"/><text fill="#000000" font-family="Arcon" font-size="26" lengthAdjust="spacing" textLength="130" x="66.5" y="199.3213">Says hello</text><polygon fill="#039BE5" points="74.5,259.7188,54.5,267.7188,74.5,275.7188,66.5,267.7188" style="stroke:#039BE5;stroke-width:2.0;"/><line style="stroke:#039BE5;stroke-width:2.0;" x1="62.5" x2="228.5" y1="267.7188" y2="267.7188"/><text fill="#000000" font-family="Arcon" font-size="26" lengthAdjust="spacing" textLength="28" x="86.5" y="257.5869">&#128516;</text><!--SRC=[KypCIyufJKbLA2wfp4ajrYiepStXuYh9BCb9LL0Apimj0D8kcOdfHOcvIbnS1Ob59Pd9cGM9UIKAIevA2ed52eceWavWmIGkhaG5NJk592k5uCJAOeMCr9oSVAuaa52YbSA7-JDQ0000]--></g></svg>